<?xml version="1.0" encoding="utf-8"?>
<!-- Generator: Adobe Illustrator 19.0.0, SVG Export Plug-In . SVG Version: 6.00 Build 0)  -->
<svg version="1.1" id="Layer_1" xmlns="http://www.w3.org/2000/svg" xmlns:xlink="http://www.w3.org/1999/xlink" x="0px" y="0px"
	 viewBox="265.3 32.5 429.5 495.6" style="enable-background:new 265.3 32.5 429.5 495.6;" xml:space="preserve">
<style type="text/css">
	.st0{fill:#161616;}
	.st1{fill:#2A2830;}
	.st2{fill:#4E4E63;}
	.st3{fill:#6B59EF;}
</style>
<g id="XMLID_64_">
	<path id="XMLID_44_" class="st0" d="M551.7,238.8"/>
	<polygon id="XMLID_43_" class="st1" points="551.4,321.4 551.4,239 622.9,197.9 622.9,362.9 	"/>
	<polygon id="XMLID_42_" class="st2" points="479.9,197.7 694.8,73.8 694.8,321.6 622.9,362.9 622.9,197.9 479.9,280.5 	"/>
	<polygon id="XMLID_41_" class="st2" points="479.9,445.6 551.4,404.4 551.4,486.8 479.9,528.1 	"/>
	<polygon id="XMLID_40_" class="st1" points="479.9,445.6 336.8,362.9 336.8,197.7 479.9,280.5 479.9,197.7 265.3,73.8 265.3,404.2 
		479.9,528.1 	"/>
	<polygon id="XMLID_39_" class="st2" points="408.3,321.6 408.7,239.2 336.8,197.7 336.8,362.9 	"/>
	<polygon id="XMLID_38_" class="st3" points="336.8,362.9 408.3,321.6 551.4,404.4 479.9,445.6 	"/>
	<polygon id="XMLID_2_" class="st3" points="265.3,73.8 336.8,32.5 479.9,115.1 622.9,32.7 694.8,73.8 479.9,197.7 	"/>
</g>
</svg>
