<?xml version="1.0" encoding="utf-8"?>
<!-- Generator: Adobe Illustrator 19.0.0, SVG Export Plug-In . SVG Version: 6.00 Build 0)  -->
<svg version="1.1" id="Layer_1" xmlns="http://www.w3.org/2000/svg" xmlns:xlink="http://www.w3.org/1999/xlink" x="0px" y="0px"
	 viewBox="378.3 163.2 203 234.4" style="enable-background:new 378.3 163.2 203 234.4;" xml:space="preserve">
<style type="text/css">
	.st0{fill:#6B59EF;}
	.st1{fill:none;}
</style>
<g id="XMLID_1_">
	<polygon id="XMLID_2_" class="st0" points="378.3,339 412.2,358.5 446,339 446,300 412.2,280.4 378.3,300 	"/>
	<polygon id="XMLID_3_" class="st0" points="412.3,319.6 446,300 446,260.9 412.2,241.4 378.3,260.9 378.3,300 	"/>
	<polygon id="XMLID_4_" class="st0" points="412.2,280.4 446,260.9 446,221.8 412.2,202.3 378.3,221.8 378.3,260.9 	"/>
	<polygon id="XMLID_5_" class="st0" points="412.2,241.4 446,221.8 446,182.8 412.2,163.2 378.3,182.8 378.3,221.8 	"/>
	<polygon id="XMLID_6_" class="st0" points="513.6,260.8 547.5,241.3 581.3,260.8 581.3,299.9 547.5,319.4 513.6,299.9 	"/>
	<polygon id="XMLID_7_" class="st0" points="513.6,221.7 547.5,202.2 581.3,221.7 581.3,260.8 547.5,280.3 513.6,260.8 	"/>
	<polygon id="XMLID_8_" class="st0" points="513.6,182.9 547.5,163.3 581.3,182.9 581.3,221.9 547.5,241.5 513.6,221.9 	"/>
	<polygon id="XMLID_9_" class="st0" points="479.8,202.3 513.6,182.8 547.5,202.3 547.5,241.4 513.6,260.9 479.8,241.4 	"/>
	<polygon id="XMLID_10_" class="st0" points="446,182.8 479.8,202.3 479.8,241.4 446,260.9 412.2,241.4 412.2,202.3 	"/>
	<polygon id="XMLID_11_" class="st0" points="446,221.8 479.8,202.3 513.6,221.8 513.6,260.9 479.8,280.4 446,260.9 	"/>
	<polygon id="XMLID_12_" class="st0" points="446,378.1 479.8,358.5 479.8,319.5 446,300 412.3,319.6 412.3,358.5 	"/>
	<polygon id="XMLID_13_" class="st0" points="446,378.1 479.8,397.6 513.6,378.1 513.6,339 479.8,319.5 446,339 	"/>
	<line id="XMLID_14_" class="st1" x1="412.2" y1="241.4" x2="412.2" y2="319.6"/>
	<line id="XMLID_15_" class="st1" x1="378.3" y1="182.8" x2="479.8" y2="241.4"/>
	<line id="XMLID_16_" class="st1" x1="479.8" y1="241.3" x2="479.8" y2="280.5"/>
	<line id="XMLID_17_" class="st1" x1="412.3" y1="319.6" x2="479.8" y2="358.6"/>
	<line id="XMLID_18_" class="st1" x1="479.8" y1="358.6" x2="513.6" y2="339.1"/>
	<line id="XMLID_19_" class="st1" x1="479.8" y1="241.3" x2="547.5" y2="202.4"/>
	<line id="XMLID_20_" class="st1" x1="547.5" y1="202.2" x2="581.3" y2="182.9"/>
	<line id="XMLID_21_" class="st1" x1="547.5" y1="241.3" x2="547.5" y2="319.4"/>
	<line id="XMLID_22_" class="st1" x1="479.8" y1="358.5" x2="479.8" y2="397.6"/>
</g>
</svg>
