<?xml version="1.0" encoding="utf-8"?>
<!-- Generator: Adobe Illustrator 19.0.0, SVG Export Plug-In . SVG Version: 6.00 Build 0)  -->
<svg version="1.1" id="Layer_1" xmlns="http://www.w3.org/2000/svg" xmlns:xlink="http://www.w3.org/1999/xlink" x="0px" y="0px"
	 viewBox="-447 249 64 64" style="enable-background:new -447 249 64 64;" xml:space="preserve">
<style type="text/css">
	.st0{fill:#FFFFFF;}
</style>
<g>
	<path class="st0" d="M-415,249.8c-17.7,0-32,14.3-32,32c0,14.1,9.2,26.1,21.9,30.4c1.6,0.3,2.2-0.7,2.2-1.5c0-0.8,0-3.3,0-6
		c-8.9,1.9-10.8-3.8-10.8-3.8c-1.5-3.7-3.6-4.7-3.6-4.7c-2.9-2,0.2-1.9,0.2-1.9c3.2,0.2,4.9,3.3,4.9,3.3c2.9,4.9,7.5,3.5,9.3,2.7
		c0.3-2.1,1.1-3.5,2-4.3c-7.1-0.8-14.6-3.6-14.6-15.8c0-3.5,1.2-6.3,3.3-8.6c-0.3-0.8-1.4-4.1,0.3-8.5c0,0,2.7-0.9,8.8,3.3
		c2.6-0.7,5.3-1.1,8-1.1c2.7,0,5.5,0.4,8,1.1c6.1-4.1,8.8-3.3,8.8-3.3c1.7,4.4,0.6,7.7,0.3,8.5c2.1,2.2,3.3,5.1,3.3,8.6
		c0,12.3-7.5,15-14.6,15.8c1.1,1,2.2,2.9,2.2,5.9c0,4.3,0,7.7,0,8.8c0,0.9,0.6,1.8,2.2,1.5c12.7-4.3,21.9-16.3,21.9-30.4
		C-383,264.1-397.3,249.8-415,249.8z"/>
	<path class="st0" d="M-434.9,295.7c-0.1,0.2-0.3,0.2-0.5,0.1c-0.2-0.1-0.4-0.3-0.3-0.5c0.1-0.2,0.3-0.2,0.6-0.1
		C-434.9,295.4-434.8,295.6-434.9,295.7L-434.9,295.7z"/>
	<path class="st0" d="M-433.6,297.2c-0.2,0.1-0.5,0.1-0.7-0.1c-0.2-0.2-0.2-0.5-0.1-0.7c0.2-0.1,0.4-0.1,0.7,0.1
		C-433.5,296.7-433.4,297-433.6,297.2L-433.6,297.2z"/>
	<path class="st0" d="M-432.3,299c-0.2,0.1-0.5,0-0.7-0.3c-0.2-0.3-0.2-0.6,0-0.8c0.2-0.1,0.5,0,0.7,0.3
		C-432.1,298.5-432.1,298.9-432.3,299L-432.3,299z"/>
	<path class="st0" d="M-430.6,300.8c-0.2,0.2-0.5,0.1-0.8-0.1c-0.3-0.3-0.4-0.6-0.2-0.8c0.2-0.2,0.6-0.1,0.8,0.1
		C-430.5,300.2-430.4,300.6-430.6,300.8L-430.6,300.8z"/>
	<path class="st0" d="M-428.2,301.8c-0.1,0.3-0.4,0.4-0.8,0.3s-0.6-0.4-0.5-0.7c0.1-0.3,0.4-0.4,0.8-0.3
		C-428.4,301.3-428.1,301.6-428.2,301.8L-428.2,301.8z"/>
	<path class="st0" d="M-425.6,302c0,0.3-0.3,0.5-0.7,0.5c-0.4,0-0.7-0.2-0.7-0.5s0.3-0.5,0.7-0.5
		C-425.9,301.6-425.6,301.8-425.6,302L-425.6,302z"/>
	<path class="st0" d="M-423.2,301.6c0,0.3-0.2,0.5-0.6,0.6c-0.4,0.1-0.7-0.1-0.8-0.3c0-0.3,0.2-0.5,0.6-0.6
		C-423.5,301.2-423.2,301.4-423.2,301.6L-423.2,301.6z"/>
</g>
</svg>
